<?xml version="1.0" encoding="UTF-8"?>
<svg xmlns="http://www.w3.org/2000/svg" xmlns:xlink="http://www.w3.org/1999/xlink" width="15pt" height="15pt" viewBox="0 0 30 30" version="1.1">
<g id="surface1">
<path style=" stroke:none;fill-rule:nonzero;fill:rgb(0%,0%,0%);fill-opacity:1;" d="M 13.453125 0.0390625 C 12.988281 0.136719 12.589844 0.5 12.425781 0.972656 L 12.363281 1.160156 L 12.355469 6.753906 L 12.351562 12.351562 L 6.828125 12.351562 C 0.691406 12.351562 1.121094 12.339844 0.773438 12.511719 C 0.53125 12.628906 0.277344 12.882812 0.15625 13.128906 C 0.00390625 13.441406 0 13.46875 0 15 C 0 16.527344 0.00390625 16.5625 0.15625 16.863281 C 0.316406 17.195312 0.59375 17.433594 0.960938 17.5625 L 1.160156 17.636719 L 6.753906 17.644531 L 12.351562 17.648438 L 12.355469 23.246094 L 12.363281 28.839844 L 12.429688 29.027344 C 12.601562 29.511719 12.988281 29.863281 13.46875 29.964844 C 13.703125 30.015625 16.296875 30.015625 16.53125 29.964844 C 17.011719 29.863281 17.398438 29.511719 17.570312 29.027344 L 17.636719 28.839844 L 17.644531 23.246094 L 17.648438 17.648438 L 23.246094 17.644531 L 28.839844 17.636719 L 29.039062 17.5625 C 29.40625 17.433594 29.683594 17.195312 29.84375 16.863281 C 29.996094 16.5625 30 16.527344 30 15 C 30 13.46875 29.996094 13.441406 29.84375 13.128906 C 29.722656 12.882812 29.46875 12.628906 29.226562 12.511719 C 28.878906 12.339844 29.308594 12.351562 23.171875 12.351562 L 17.648438 12.351562 L 17.644531 6.753906 L 17.636719 1.160156 L 17.574219 0.972656 C 17.410156 0.496094 17.011719 0.136719 16.535156 0.0351562 C 16.300781 -0.015625 13.683594 -0.0117188 13.453125 0.0390625 Z M 13.453125 0.0390625 "/>
</g>
</svg>
