<?xml version="1.0" encoding="UTF-8"?>
<svg xmlns="http://www.w3.org/2000/svg" xmlns:xlink="http://www.w3.org/1999/xlink" width="30pt" height="28pt" viewBox="0 0 30 28" version="1.1">
<g id="surface1">
<path style=" stroke:none;fill-rule:nonzero;fill:rgb(0%,100%,49.803922%);fill-opacity:1;" d="M 13.804688 3.597656 C 13.027344 5.335938 12.078125 7.453125 11.699219 8.300781 C 11.324219 9.148438 11.007812 9.847656 11.003906 9.851562 C 11 9.855469 10.28125 9.910156 9.40625 9.96875 C 8.53125 10.03125 6.933594 10.144531 5.859375 10.222656 C 4.785156 10.300781 3.3125 10.402344 2.589844 10.453125 C 1.867188 10.503906 1.21875 10.554688 1.148438 10.558594 L 1.023438 10.574219 L 1.136719 10.683594 C 1.203125 10.738281 1.925781 11.371094 2.738281 12.089844 C 3.558594 12.804688 4.628906 13.742188 5.121094 14.171875 C 8.089844 16.773438 8.777344 17.375 8.804688 17.394531 C 8.84375 17.425781 8.980469 16.871094 7.535156 22.613281 C 6.933594 24.996094 6.449219 26.957031 6.449219 26.964844 C 6.453125 26.972656 8.488281 25.816406 10.96875 24.390625 C 13.449219 22.96875 15.496094 21.808594 15.515625 21.8125 C 15.535156 21.816406 16.449219 22.371094 17.542969 23.039062 C 18.640625 23.707031 20.273438 24.703125 21.175781 25.253906 C 22.078125 25.804688 23.078125 26.414062 23.394531 26.609375 C 23.710938 26.804688 23.980469 26.964844 23.988281 26.964844 C 23.996094 26.964844 23.996094 26.925781 23.988281 26.875 C 23.972656 26.796875 23.023438 22.507812 22.167969 18.660156 C 21.964844 17.734375 21.796875 16.960938 21.796875 16.941406 C 21.796875 16.910156 23.316406 15.644531 28.820312 11.085938 C 29.425781 10.585938 29.433594 10.582031 29.359375 10.566406 C 29.316406 10.554688 26.992188 10.324219 24.1875 10.050781 C 21.382812 9.777344 19.070312 9.542969 19.039062 9.53125 C 19.003906 9.519531 18.894531 9.277344 18.574219 8.507812 C 18.34375 7.949219 17.609375 6.171875 16.941406 4.558594 C 16.273438 2.945312 15.617188 1.363281 15.488281 1.046875 C 15.355469 0.730469 15.242188 0.464844 15.234375 0.453125 C 15.226562 0.445312 14.582031 1.859375 13.804688 3.597656 Z M 13.804688 3.597656 "/>
</g>
</svg>
